<svg width="22" height="22" viewBox="0 0 22 22" fill="none" xmlns="http://www.w3.org/2000/svg">
  <rect opacity="0.01" width="22" height="22" fill="#7C8FA6"/>
  <mask id="snap_to_grid_on" masktype="alpha" maskUnits="userSpaceOnUse" x="0" y="0" width="22" height="22">
    <path fill-rule="evenodd" clip-rule="evenodd" d="M0 2C0 0.895431 0.89543 0 2 0H6C7.10457 0 8 0.89543 8 2V3H14V2C14 0.89543 14.8954 0 16 0H20C21.1046 0 22 0.89543 22 2V6C22 7.10457 21.1046 8 20 8H16C14.8954 8 14 7.10457 14 6V5H8V6.58579L15.4142 14H20C21.1046 14 22 14.8954 22 16V20C22 21.1046 21.1046 22 20 22H16C14.8954 22 14 21.1046 14 20V15.4142L6.58579 8H5V14H6C7.10457 14 8 14.8954 8 16V20C8 21.1046 7.10457 22 6 22H2C0.895431 22 0 21.1046 0 20V16C0 14.8954 0.89543 14 2 14H3V8H2C0.89543 8 0 7.10457 0 6V2ZM6 6V2H2V6H6ZM16 16V20H20V16H16ZM20 2H16V6H20V2ZM2 16V20H6V16H2Z" fill="#ffffff"/>
  </mask>
  <g mask="url(#snap_to_grid_on)">
    <rect width="22" height="22" fill="#7C8FA6"/>
  </g>
</svg>
